<svg xmlns="http://www.w3.org/2000/svg" xmlns:xlink="http://www.w3.org/1999/xlink" version="1.1" x="0px" y="0px" viewBox="0 0 20 25" enable-background="new 0 0 20 20" xml:space="preserve"><g><path fill="#000000" d="M10,0C5.6,0,2,3.6,2,8c0,6.4,7.1,11.6,7.4,11.8c0.2,0.1,0.6,0.4,1.2,0C10.9,19.6,18,14.4,18,8   C18,3.6,14.4,0,10,0z M10,17.7C8.4,16.4,4,12.4,4,8c0-3.3,2.7-6,6-6s6,2.7,6,6C16,12.4,11.6,16.4,10,17.7z"/><path fill="#000000" d="M10,4C7.8,4,6,5.8,6,8s1.8,4,4,4s4-1.8,4-4S12.2,4,10,4z M10,10c-1.1,0-2-0.9-2-2s0.9-2,2-2s2,0.9,2,2   S11.1,10,10,10z"/></g><text x="0" y="35" fill="#000000" font-size="5px" font-weight="bold" font-family="'Helvetica Neue', Helvetica, Arial-Unicode, Arial, Sans-serif">Created by ProSymbols</text><text x="0" y="40" fill="#000000" font-size="5px" font-weight="bold" font-family="'Helvetica Neue', Helvetica, Arial-Unicode, Arial, Sans-serif">from the Noun Project</text></svg>